<svg width="75" height="41" viewBox="0 0 75 41" fill="none" xmlns="http://www.w3.org/2000/svg">
<path d="M52.6917 25.9787C51.6753 26.2116 49 26.3458 49 26.3458L48.6611 27.4046C48.6611 27.4046 49.9953 27.2916 50.9694 27.3905C50.9694 27.3905 51.287 27.3552 51.3223 27.7505C51.3364 28.1175 51.2941 28.5128 51.2941 28.5128C51.2941 28.5128 51.2729 28.7528 50.9341 28.8093C50.567 28.8728 48.0541 28.9646 48.0541 28.9646L47.6447 30.3411C47.6447 30.3411 47.4964 30.6587 47.8353 30.5669C48.1529 30.4822 50.7858 29.9881 51.1317 30.0587C51.4988 30.1505 51.9082 30.6375 51.7882 31.0893C51.647 31.6399 49.0211 33.3199 47.4188 33.1999C47.4188 33.1999 46.5788 33.2563 45.8658 32.1199C45.2023 31.0399 46.12 28.9858 46.12 28.9858C46.12 28.9858 45.7035 28.0258 46.007 27.7081C46.007 27.7081 46.1905 27.5458 46.7129 27.5034L47.3552 26.1693C47.3552 26.1693 46.6211 26.2187 46.1835 25.6822C45.7741 25.1669 45.7458 24.934 46.0564 24.7928C46.3882 24.6305 49.4447 24.0728 51.5482 24.1434C51.5482 24.1434 52.2823 24.0728 52.9105 25.3434C52.9035 25.3434 53.2141 25.8587 52.6917 25.9787ZM44.7788 31.1034C44.5105 31.7387 43.7976 32.4164 42.9153 31.9928C42.04 31.5693 40.6494 28.7246 40.6494 28.7246C40.6494 28.7246 40.12 27.6658 40.0211 27.6869C40.0211 27.6869 39.9082 27.4822 39.8376 28.6399C39.767 29.7975 39.8517 32.0493 39.3929 32.4022C38.9553 32.7552 38.4258 32.614 38.1505 32.1975C37.9035 31.7881 37.7976 30.814 37.9317 29.1058C38.0941 27.3975 38.4894 25.5764 38.9976 25.0046C39.5058 24.4399 39.9152 24.8493 40.0705 24.9975C40.0705 24.9975 40.7482 25.6116 41.8705 27.4187L42.0682 27.7505C42.0682 27.7505 43.0847 29.4587 43.1905 29.4516C43.1905 29.4516 43.2753 29.5293 43.3458 29.4728C43.4517 29.4446 43.4094 28.894 43.4094 28.894C43.4094 28.894 43.1976 27.0375 42.2729 23.8893C42.2729 23.8893 42.1317 23.494 42.2305 23.1269C42.3223 22.7528 42.6964 22.9293 42.6964 22.9293C42.6964 22.9293 44.1364 23.6493 44.8282 25.9928C45.5129 28.3575 45.047 30.4681 44.7788 31.1034ZM37.7058 25.0822C37.5858 25.3222 37.5153 25.6681 36.9082 25.7599C36.9082 25.7599 31.0988 26.1552 30.8235 26.5646C30.8235 26.5646 30.6188 26.8046 30.9364 26.8752C31.2541 26.9387 32.567 27.1152 33.2023 27.1505C33.88 27.1575 36.167 27.1787 36.9858 28.2022C36.9858 28.2022 37.4729 28.6893 37.4517 29.7905C37.4305 30.9199 37.2329 31.3152 36.7952 31.7246C36.3364 32.1058 32.3976 33.8705 29.8564 31.1599C29.8564 31.1599 28.6847 29.854 30.2588 28.8658C30.2588 28.8658 31.3953 28.1811 34.2823 28.9858C34.2823 28.9858 35.1576 29.3034 35.1152 29.6211C35.0658 29.9599 34.3952 30.3199 33.4211 30.2987C32.4753 30.2705 31.7835 29.8187 31.9176 29.8893C32.0447 29.9387 30.9011 29.3387 30.5482 29.7481C30.1952 30.1222 30.28 30.3552 30.6258 30.5881C31.5082 31.0893 34.9176 30.9128 35.9341 29.7834C35.9341 29.7834 36.3364 29.3246 35.7223 28.9505C35.1082 28.5975 33.3505 28.3858 32.6658 28.3505C32.0094 28.3152 29.567 28.3575 29.2141 27.7081C29.2141 27.7081 28.8611 27.2705 29.2494 26.0281C29.6588 24.7293 32.5035 24.2281 33.7317 24.1152C33.7317 24.1152 37.1129 23.9952 37.7341 24.6869C37.727 24.6869 37.8117 24.8493 37.7058 25.0822ZM28.1058 32.6987C27.6964 33.0022 26.8282 32.8681 26.5811 32.5293C26.3341 32.2258 26.2494 31.0187 26.2988 29.1269C26.3482 27.214 26.3905 24.8422 26.8 24.4681C27.2376 24.0869 27.5058 24.4187 27.6753 24.6799C27.8588 24.934 28.0776 25.2164 28.127 25.8164C28.1694 26.4164 28.3105 29.5646 28.3105 29.5646C28.3105 29.5646 28.4941 32.4022 28.1058 32.6987ZM28.9882 22.5481C27.7953 22.9434 26.9764 22.8093 26.2847 22.5128C25.9811 23.0422 25.8047 23.2046 25.5717 23.2399C25.2329 23.2752 24.9294 22.7316 24.8729 22.5552C24.8164 22.4211 24.6541 22.1952 24.8517 21.6587C24.1741 21.0516 24.1247 20.2328 24.2376 19.6822C24.407 19.0469 25.5505 16.6328 29.0305 16.3505C29.0305 16.3505 30.7317 16.2234 31.0211 17.134H31.0705C31.0705 17.134 32.7223 17.1411 32.687 18.6093C32.6658 20.0846 30.8517 21.9199 28.9882 22.5481ZM25.7411 19.2799C25.3882 19.8446 25.3741 20.1834 25.5364 20.4164C25.9388 19.8022 26.6729 18.8352 27.7529 18.1011C26.92 18.1716 26.2211 18.5316 25.7411 19.2799ZM30.5482 18.334C29.4541 18.4964 27.76 19.9646 26.9553 21.1646C28.1905 21.3905 30.3717 21.3058 31.3388 19.3363C31.3317 19.3363 31.7976 18.1152 30.5482 18.334ZM60.2517 29.7058C59.5952 30.8493 57.7529 33.2352 55.2964 32.6775C54.4847 34.6469 53.807 36.6305 53.4188 39.6093C53.4188 39.6093 53.3341 40.1881 52.8541 39.9834C52.3811 39.814 51.5905 39.0234 51.4352 37.9293C51.2658 36.4893 51.9082 34.054 53.2141 31.2658C52.8329 30.6446 52.5717 29.7552 52.7976 28.4916C52.7976 28.4916 53.1294 26.1481 55.48 24.0305C55.48 24.0305 55.7623 23.7834 55.9247 23.8611C56.1082 23.9387 56.0235 24.7011 55.8753 25.0681C55.727 25.4352 54.6753 27.2563 54.6753 27.2563C54.6753 27.2563 54.0188 28.4846 54.2023 29.4516C55.4376 27.5528 58.247 23.7199 59.9905 24.9269C60.5764 25.3434 60.8447 26.254 60.8447 27.2352C60.8376 28.1034 60.6329 29.0211 60.2517 29.7058ZM59.7435 26.6987C59.7435 26.6987 59.6447 25.9434 58.9105 26.7764C58.2752 27.4752 57.1317 28.7952 56.207 30.5811C57.1741 30.4752 58.1058 29.9458 58.3882 29.6775C58.847 29.2681 59.9129 28.1669 59.7435 26.6987ZM25.4729 27.6587C25.3388 29.3669 24.6823 32.2399 20.0305 33.6587C16.96 34.5834 14.0588 34.1387 12.4776 33.7363C12.4423 34.3646 12.3717 34.6328 12.2729 34.7387C12.1388 34.8728 11.1364 35.4516 10.5858 34.6328C10.3388 34.2446 10.2117 33.5387 10.1411 32.9105C6.58349 31.2728 4.94584 28.9152 4.88231 28.8093C4.80467 28.7316 3.9929 27.8846 4.80466 26.8469C5.56702 25.9081 8.05878 24.9693 10.3035 24.5881C10.3811 22.6681 10.607 21.2211 10.8753 20.5575C11.2 19.7881 11.6094 20.4799 11.9623 21.0022C12.2588 21.3905 12.4353 23.0634 12.4494 24.3975C13.9176 24.3269 14.7858 24.4328 16.4235 24.7293C18.5553 25.1175 19.9811 26.2046 19.8541 27.4399C19.7623 28.654 18.647 29.1552 18.2235 29.1905C17.7788 29.2258 17.087 28.9081 17.087 28.9081C16.6141 28.6822 17.0517 28.4846 17.6235 28.2375C18.2447 27.934 18.1035 27.6234 18.1035 27.6234C17.8705 26.9458 15.1035 26.4728 12.3505 26.4728C12.3364 27.9905 12.4141 30.5105 12.4494 31.9787C14.3764 32.3458 15.8164 32.2752 15.8164 32.2752C15.8164 32.2752 22.847 32.0775 23.0588 27.5881C23.2776 23.0916 16.0494 18.7787 10.7058 17.4093C5.36937 16.0116 2.34819 16.9858 2.08702 17.1199C1.80466 17.2611 2.06584 17.3034 2.06584 17.3034C2.06584 17.3034 2.35525 17.3458 2.85643 17.5152C3.38584 17.6846 2.97643 17.9599 2.97643 17.9599C2.06584 18.2493 1.04231 18.0658 0.844664 17.6493C0.647017 17.2328 0.978783 16.8587 1.35996 16.3222C1.74114 15.7575 2.15761 15.7787 2.15761 15.7787C8.75761 13.4916 16.7976 17.6281 16.7976 17.6281C24.3294 21.4469 25.6141 25.9222 25.4729 27.6587ZM5.5529 27.4258C4.80466 27.7928 5.31996 28.3222 5.31996 28.3222C6.72467 29.8328 8.45408 30.7787 10.0988 31.3646C10.2894 28.7599 10.2611 27.8422 10.2823 26.5293C7.7129 26.7058 6.23055 27.1152 5.5529 27.4258Z" fill="white"/>
<path d="M74.2281 26.889V27.8208C74.2281 28.0255 74.0657 28.1878 73.861 28.1878H69.421C69.421 28.4208 69.4281 28.6255 69.4281 28.8161C69.4281 30.1926 69.3716 31.3149 69.2375 32.5784C69.2163 32.769 69.061 32.9102 68.8775 32.9102H67.9175C67.8187 32.9102 67.7269 32.8678 67.6634 32.7973C67.5998 32.7267 67.5646 32.6278 67.5787 32.529C67.7128 31.2725 67.7763 30.1643 67.7763 28.8161C67.7763 28.6184 67.7763 28.4137 67.7693 28.1878H63.3787C63.174 28.1878 63.0116 28.0255 63.0116 27.8208V26.889C63.0116 26.6843 63.174 26.522 63.3787 26.522H67.7057C67.614 25.0043 67.4304 23.5431 67.134 22.0608C67.1198 21.969 67.141 21.8773 67.1975 21.8067C67.254 21.7361 67.3387 21.6937 67.4304 21.6937H68.4681C68.6304 21.6937 68.7646 21.8067 68.7998 21.969C69.0893 23.5008 69.2728 24.9902 69.3646 26.522H73.861C74.0587 26.522 74.2281 26.6914 74.2281 26.889Z" fill="white"/>
<path d="M68.1858 19.4985C65.8917 13.8585 62.0164 9.05143 56.9764 5.59261C51.8164 2.05614 45.767 0.185547 39.4846 0.185547C29.094 0.185547 19.4517 5.34555 13.6987 13.9926C13.6352 14.0844 13.6211 14.2044 13.6564 14.3103C13.6917 14.4232 13.7764 14.5008 13.8823 14.5361L14.687 14.8114C14.7364 14.8255 14.7858 14.8326 14.8282 14.8326C14.9764 14.8326 15.1176 14.755 15.2023 14.635C17.8423 10.7526 21.414 7.52672 25.5364 5.29614C29.7929 2.99496 34.614 1.77378 39.4776 1.77378C45.3576 1.77378 51.0258 3.51025 55.8823 6.78555C60.6187 9.98319 64.2964 14.4514 66.5199 19.6961C66.5834 19.8514 66.7387 19.9573 66.9081 19.9573H67.8681C67.9811 19.9573 68.087 19.9008 68.1434 19.8091C68.214 19.7173 68.2281 19.6044 68.1858 19.4985ZM14.8282 14.5926C14.807 14.5926 14.7858 14.5855 14.7646 14.5785C14.7858 14.5855 14.807 14.5926 14.8282 14.5926C14.8352 14.5926 14.8423 14.5926 14.8423 14.5926C14.8423 14.5926 14.8352 14.5926 14.8282 14.5926ZM66.7105 19.8302C66.7317 19.8444 66.7529 19.8585 66.774 19.8655C66.7529 19.8514 66.7317 19.8444 66.7105 19.8302Z" fill="url(#paint0_radial_2974_1968)"/>
<defs>
<radialGradient id="paint0_radial_2974_1968" cx="0" cy="0" r="1" gradientUnits="userSpaceOnUse" gradientTransform="translate(67.284 19.9217) scale(53.6558 53.6558)">
<stop offset="0.00708621" stop-color="white"/>
<stop offset="0.0300991" stop-color="#CBFFFF"/>
<stop offset="0.0570069" stop-color="#96FFFF"/>
<stop offset="0.0842769" stop-color="#68FFFF"/>
<stop offset="0.1113" stop-color="#43FFFF"/>
<stop offset="0.1382" stop-color="#25FFFF"/>
<stop offset="0.1647" stop-color="#11FFFF"/>
<stop offset="0.1908" stop-color="#04FFFF"/>
<stop offset="0.2159" stop-color="#00FFFF"/>
<stop offset="1" stop-color="#0000FF" stop-opacity="0"/>
</radialGradient>
</defs>
</svg>
