<svg width="24" height="24" viewBox="0 0 24 24" fill="none" xmlns="http://www.w3.org/2000/svg">
<path d="M18.098 13.614L7.51333 19.516C7.29014 19.6402 7.03838 19.704 6.78296 19.701C6.52755 19.698 6.27733 19.6284 6.05709 19.499C5.83685 19.3697 5.65422 19.185 5.52727 18.9633C5.40033 18.7417 5.33348 18.4907 5.33333 18.2353V6.43128C5.33341 6.17575 5.40025 5.92468 5.52723 5.70293C5.65421 5.48119 5.83692 5.29646 6.05726 5.16706C6.2776 5.03766 6.52793 4.96807 6.78344 4.96518C7.03896 4.9623 7.29079 5.02622 7.51399 5.15062L18.098 11.0519C18.3261 11.1791 18.5161 11.3649 18.6484 11.5901C18.7807 11.8153 18.8504 12.0718 18.8504 12.333C18.8504 12.5941 18.7807 12.8506 18.6484 13.0758C18.5161 13.301 18.3261 13.4868 18.098 13.614Z" fill="#1A1D29"/>
</svg>
